<?xml version="1.0" encoding="UTF-8" standalone="no"?>
<!DOCTYPE svg PUBLIC "-//W3C//DTD SVG 1.1//EN"
 "http://www.w3.org/Graphics/SVG/1.1/DTD/svg11.dtd">
<!-- Generated by graphviz version 2.43.0 (0)
 -->
<!-- Title: model Pages: 1 -->
<svg width="280pt" height="1186pt"
 viewBox="0.00 0.00 280.00 1186.00" xmlns="http://www.w3.org/2000/svg" xmlns:xlink="http://www.w3.org/1999/xlink">
<g id="graph0" class="graph" transform="scale(1 1) rotate(0) translate(4 1182)">
<title>model</title>
<polygon fill="white" stroke="transparent" points="-4,4 -4,-1182 276,-1182 276,4 -4,4"/>
<g id="clust1" class="cluster">
<title>cluster_2</title>
<polygon fill="none" stroke="black" stroke-dasharray="5,2" points="8,-8 8,-1138 264,-1138 264,-8 8,-8"/>
<text text-anchor="middle" x="41.5" y="-1124.4" font-family="Times,serif" font-size="12.00">Sequential</text>
</g>
<g id="clust2" class="cluster">
<title>cluster_3</title>
<polygon fill="none" stroke="black" stroke-dasharray="5,2" points="16,-796 16,-1109 256,-1109 256,-796 16,-796"/>
<text text-anchor="middle" x="49.5" y="-1095.4" font-family="Times,serif" font-size="12.00">Sequential</text>
</g>
<g id="clust3" class="cluster">
<title>cluster_4</title>
<polygon fill="none" stroke="black" stroke-dasharray="5,2" points="16,-475 16,-788 256,-788 256,-475 16,-475"/>
<text text-anchor="middle" x="49.5" y="-774.4" font-family="Times,serif" font-size="12.00">Sequential</text>
</g>
<g id="clust4" class="cluster">
<title>cluster_5</title>
<polygon fill="none" stroke="black" stroke-dasharray="5,2" points="16,-154 16,-467 256,-467 256,-154 16,-154"/>
<text text-anchor="middle" x="49.5" y="-453.4" font-family="Times,serif" font-size="12.00">Sequential</text>
</g>
<!-- 0 -->
<g id="node1" class="node">
<title>0</title>
<polygon fill="lightyellow" stroke="transparent" points="216,-1178 56,-1178 56,-1146 216,-1146 216,-1178"/>
<polygon fill="none" stroke="black" points="56,-1146 56,-1178 126,-1178 126,-1146 56,-1146"/>
<text text-anchor="start" x="61" y="-1165" font-family="Linux libertine" font-size="10.00">input&#45;tensor</text>
<text text-anchor="start" x="72.5" y="-1154" font-family="Linux libertine" font-size="10.00">depth:0</text>
<polygon fill="none" stroke="black" points="126,-1146 126,-1178 216,-1178 216,-1146 126,-1146"/>
<text text-anchor="start" x="131" y="-1159.5" font-family="Linux libertine" font-size="10.00">(256, 1, 128, 44)</text>
</g>
<!-- 1 -->
<g id="node2" class="node">
<title>1</title>
<polygon fill="#c1ffc1" stroke="transparent" points="233,-1080 39,-1080 39,-1038 233,-1038 233,-1080"/>
<polygon fill="none" stroke="black" points="39,-1038 39,-1080 86,-1080 86,-1038 39,-1038"/>
<text text-anchor="start" x="44" y="-1062" font-family="Linux libertine" font-size="10.00">Conv2d</text>
<text text-anchor="start" x="44" y="-1051" font-family="Linux libertine" font-size="10.00">depth:3</text>
<polygon fill="none" stroke="black" points="86,-1059 86,-1080 134,-1080 134,-1059 86,-1059"/>
<text text-anchor="start" x="96" y="-1067" font-family="Linux libertine" font-size="10.00">input:</text>
<polygon fill="none" stroke="black" points="134,-1059 134,-1080 233,-1080 233,-1059 134,-1059"/>
<text text-anchor="start" x="142" y="-1067" font-family="Linux libertine" font-size="10.00">(256, 1, 128, 44) </text>
<polygon fill="none" stroke="black" points="86,-1038 86,-1059 134,-1059 134,-1038 86,-1038"/>
<text text-anchor="start" x="91" y="-1046" font-family="Linux libertine" font-size="10.00">output: </text>
<polygon fill="none" stroke="black" points="134,-1038 134,-1059 233,-1059 233,-1038 134,-1038"/>
<text text-anchor="start" x="139" y="-1046" font-family="Linux libertine" font-size="10.00">(256, 16, 119, 35) </text>
</g>
<!-- 0&#45;&gt;1 -->
<g id="edge1" class="edge">
<title>0&#45;&gt;1</title>
<path fill="none" stroke="black" d="M136,-1145.66C136,-1130.99 136,-1108.46 136,-1090.19"/>
<polygon fill="black" stroke="black" points="139.5,-1090.02 136,-1080.02 132.5,-1090.02 139.5,-1090.02"/>
</g>
<!-- 2 -->
<g id="node3" class="node">
<title>2</title>
<polygon fill="#c1ffc1" stroke="transparent" points="248,-1002 24,-1002 24,-960 248,-960 248,-1002"/>
<polygon fill="none" stroke="black" points="24,-960 24,-1002 101,-1002 101,-960 24,-960"/>
<text text-anchor="start" x="29" y="-984" font-family="Linux libertine" font-size="10.00">BatchNorm2d</text>
<text text-anchor="start" x="44" y="-973" font-family="Linux libertine" font-size="10.00">depth:3</text>
<polygon fill="none" stroke="black" points="101,-981 101,-1002 149,-1002 149,-981 101,-981"/>
<text text-anchor="start" x="111" y="-989" font-family="Linux libertine" font-size="10.00">input:</text>
<polygon fill="none" stroke="black" points="149,-981 149,-1002 248,-1002 248,-981 149,-981"/>
<text text-anchor="start" x="154" y="-989" font-family="Linux libertine" font-size="10.00">(256, 16, 119, 35) </text>
<polygon fill="none" stroke="black" points="101,-960 101,-981 149,-981 149,-960 101,-960"/>
<text text-anchor="start" x="106" y="-968" font-family="Linux libertine" font-size="10.00">output: </text>
<polygon fill="none" stroke="black" points="149,-960 149,-981 248,-981 248,-960 149,-960"/>
<text text-anchor="start" x="154" y="-968" font-family="Linux libertine" font-size="10.00">(256, 16, 119, 35) </text>
</g>
<!-- 1&#45;&gt;2 -->
<g id="edge2" class="edge">
<title>1&#45;&gt;2</title>
<path fill="none" stroke="black" d="M136,-1037.63C136,-1029.82 136,-1020.73 136,-1012.18"/>
<polygon fill="black" stroke="black" points="139.5,-1012.16 136,-1002.16 132.5,-1012.16 139.5,-1012.16"/>
</g>
<!-- 3 -->
<g id="node4" class="node">
<title>3</title>
<polygon fill="#c1ffc1" stroke="transparent" points="233,-924 39,-924 39,-882 233,-882 233,-924"/>
<polygon fill="none" stroke="black" points="39,-882 39,-924 86,-924 86,-882 39,-882"/>
<text text-anchor="start" x="46.5" y="-906" font-family="Linux libertine" font-size="10.00">PReLU</text>
<text text-anchor="start" x="44" y="-895" font-family="Linux libertine" font-size="10.00">depth:3</text>
<polygon fill="none" stroke="black" points="86,-903 86,-924 134,-924 134,-903 86,-903"/>
<text text-anchor="start" x="96" y="-911" font-family="Linux libertine" font-size="10.00">input:</text>
<polygon fill="none" stroke="black" points="134,-903 134,-924 233,-924 233,-903 134,-903"/>
<text text-anchor="start" x="139" y="-911" font-family="Linux libertine" font-size="10.00">(256, 16, 119, 35) </text>
<polygon fill="none" stroke="black" points="86,-882 86,-903 134,-903 134,-882 86,-882"/>
<text text-anchor="start" x="91" y="-890" font-family="Linux libertine" font-size="10.00">output: </text>
<polygon fill="none" stroke="black" points="134,-882 134,-903 233,-903 233,-882 134,-882"/>
<text text-anchor="start" x="139" y="-890" font-family="Linux libertine" font-size="10.00">(256, 16, 119, 35) </text>
</g>
<!-- 2&#45;&gt;3 -->
<g id="edge3" class="edge">
<title>2&#45;&gt;3</title>
<path fill="none" stroke="black" d="M136,-959.63C136,-951.82 136,-942.73 136,-934.18"/>
<polygon fill="black" stroke="black" points="139.5,-934.16 136,-924.16 132.5,-934.16 139.5,-934.16"/>
</g>
<!-- 4 -->
<g id="node5" class="node">
<title>4</title>
<polygon fill="#c1ffc1" stroke="transparent" points="234.5,-846 37.5,-846 37.5,-804 234.5,-804 234.5,-846"/>
<polygon fill="none" stroke="black" points="38,-804 38,-846 88,-846 88,-804 38,-804"/>
<text text-anchor="start" x="43" y="-828" font-family="Linux libertine" font-size="10.00">Dropout</text>
<text text-anchor="start" x="44.5" y="-817" font-family="Linux libertine" font-size="10.00">depth:3</text>
<polygon fill="none" stroke="black" points="88,-825 88,-846 136,-846 136,-825 88,-825"/>
<text text-anchor="start" x="98" y="-833" font-family="Linux libertine" font-size="10.00">input:</text>
<polygon fill="none" stroke="black" points="136,-825 136,-846 235,-846 235,-825 136,-825"/>
<text text-anchor="start" x="141" y="-833" font-family="Linux libertine" font-size="10.00">(256, 16, 119, 35) </text>
<polygon fill="none" stroke="black" points="88,-804 88,-825 136,-825 136,-804 88,-804"/>
<text text-anchor="start" x="93" y="-812" font-family="Linux libertine" font-size="10.00">output: </text>
<polygon fill="none" stroke="black" points="136,-804 136,-825 235,-825 235,-804 136,-804"/>
<text text-anchor="start" x="141" y="-812" font-family="Linux libertine" font-size="10.00">(256, 16, 119, 35) </text>
</g>
<!-- 3&#45;&gt;4 -->
<g id="edge4" class="edge">
<title>3&#45;&gt;4</title>
<path fill="none" stroke="black" d="M136,-881.63C136,-873.82 136,-864.73 136,-856.18"/>
<polygon fill="black" stroke="black" points="139.5,-856.16 136,-846.16 132.5,-856.16 139.5,-856.16"/>
</g>
<!-- 5 -->
<g id="node6" class="node">
<title>5</title>
<polygon fill="#c1ffc1" stroke="transparent" points="233,-759 39,-759 39,-717 233,-717 233,-759"/>
<polygon fill="none" stroke="black" points="39,-717 39,-759 86,-759 86,-717 39,-717"/>
<text text-anchor="start" x="44" y="-741" font-family="Linux libertine" font-size="10.00">Conv2d</text>
<text text-anchor="start" x="44" y="-730" font-family="Linux libertine" font-size="10.00">depth:3</text>
<polygon fill="none" stroke="black" points="86,-738 86,-759 134,-759 134,-738 86,-738"/>
<text text-anchor="start" x="96" y="-746" font-family="Linux libertine" font-size="10.00">input:</text>
<polygon fill="none" stroke="black" points="134,-738 134,-759 233,-759 233,-738 134,-738"/>
<text text-anchor="start" x="139" y="-746" font-family="Linux libertine" font-size="10.00">(256, 16, 119, 35) </text>
<polygon fill="none" stroke="black" points="86,-717 86,-738 134,-738 134,-717 86,-717"/>
<text text-anchor="start" x="91" y="-725" font-family="Linux libertine" font-size="10.00">output: </text>
<polygon fill="none" stroke="black" points="134,-717 134,-738 233,-738 233,-717 134,-717"/>
<text text-anchor="start" x="139" y="-725" font-family="Linux libertine" font-size="10.00">(256, 32, 112, 28) </text>
</g>
<!-- 4&#45;&gt;5 -->
<g id="edge5" class="edge">
<title>4&#45;&gt;5</title>
<path fill="none" stroke="black" d="M136,-803.86C136,-793.56 136,-780.81 136,-769.35"/>
<polygon fill="black" stroke="black" points="139.5,-769.29 136,-759.29 132.5,-769.29 139.5,-769.29"/>
</g>
<!-- 6 -->
<g id="node7" class="node">
<title>6</title>
<polygon fill="#c1ffc1" stroke="transparent" points="248,-681 24,-681 24,-639 248,-639 248,-681"/>
<polygon fill="none" stroke="black" points="24,-639 24,-681 101,-681 101,-639 24,-639"/>
<text text-anchor="start" x="29" y="-663" font-family="Linux libertine" font-size="10.00">BatchNorm2d</text>
<text text-anchor="start" x="44" y="-652" font-family="Linux libertine" font-size="10.00">depth:3</text>
<polygon fill="none" stroke="black" points="101,-660 101,-681 149,-681 149,-660 101,-660"/>
<text text-anchor="start" x="111" y="-668" font-family="Linux libertine" font-size="10.00">input:</text>
<polygon fill="none" stroke="black" points="149,-660 149,-681 248,-681 248,-660 149,-660"/>
<text text-anchor="start" x="154" y="-668" font-family="Linux libertine" font-size="10.00">(256, 32, 112, 28) </text>
<polygon fill="none" stroke="black" points="101,-639 101,-660 149,-660 149,-639 101,-639"/>
<text text-anchor="start" x="106" y="-647" font-family="Linux libertine" font-size="10.00">output: </text>
<polygon fill="none" stroke="black" points="149,-639 149,-660 248,-660 248,-639 149,-639"/>
<text text-anchor="start" x="154" y="-647" font-family="Linux libertine" font-size="10.00">(256, 32, 112, 28) </text>
</g>
<!-- 5&#45;&gt;6 -->
<g id="edge6" class="edge">
<title>5&#45;&gt;6</title>
<path fill="none" stroke="black" d="M136,-716.63C136,-708.82 136,-699.73 136,-691.18"/>
<polygon fill="black" stroke="black" points="139.5,-691.16 136,-681.16 132.5,-691.16 139.5,-691.16"/>
</g>
<!-- 7 -->
<g id="node8" class="node">
<title>7</title>
<polygon fill="#c1ffc1" stroke="transparent" points="233,-603 39,-603 39,-561 233,-561 233,-603"/>
<polygon fill="none" stroke="black" points="39,-561 39,-603 86,-603 86,-561 39,-561"/>
<text text-anchor="start" x="46.5" y="-585" font-family="Linux libertine" font-size="10.00">PReLU</text>
<text text-anchor="start" x="44" y="-574" font-family="Linux libertine" font-size="10.00">depth:3</text>
<polygon fill="none" stroke="black" points="86,-582 86,-603 134,-603 134,-582 86,-582"/>
<text text-anchor="start" x="96" y="-590" font-family="Linux libertine" font-size="10.00">input:</text>
<polygon fill="none" stroke="black" points="134,-582 134,-603 233,-603 233,-582 134,-582"/>
<text text-anchor="start" x="139" y="-590" font-family="Linux libertine" font-size="10.00">(256, 32, 112, 28) </text>
<polygon fill="none" stroke="black" points="86,-561 86,-582 134,-582 134,-561 86,-561"/>
<text text-anchor="start" x="91" y="-569" font-family="Linux libertine" font-size="10.00">output: </text>
<polygon fill="none" stroke="black" points="134,-561 134,-582 233,-582 233,-561 134,-561"/>
<text text-anchor="start" x="139" y="-569" font-family="Linux libertine" font-size="10.00">(256, 32, 112, 28) </text>
</g>
<!-- 6&#45;&gt;7 -->
<g id="edge7" class="edge">
<title>6&#45;&gt;7</title>
<path fill="none" stroke="black" d="M136,-638.63C136,-630.82 136,-621.73 136,-613.18"/>
<polygon fill="black" stroke="black" points="139.5,-613.16 136,-603.16 132.5,-613.16 139.5,-613.16"/>
</g>
<!-- 8 -->
<g id="node9" class="node">
<title>8</title>
<polygon fill="#c1ffc1" stroke="transparent" points="234.5,-525 37.5,-525 37.5,-483 234.5,-483 234.5,-525"/>
<polygon fill="none" stroke="black" points="38,-483 38,-525 88,-525 88,-483 38,-483"/>
<text text-anchor="start" x="43" y="-507" font-family="Linux libertine" font-size="10.00">Dropout</text>
<text text-anchor="start" x="44.5" y="-496" font-family="Linux libertine" font-size="10.00">depth:3</text>
<polygon fill="none" stroke="black" points="88,-504 88,-525 136,-525 136,-504 88,-504"/>
<text text-anchor="start" x="98" y="-512" font-family="Linux libertine" font-size="10.00">input:</text>
<polygon fill="none" stroke="black" points="136,-504 136,-525 235,-525 235,-504 136,-504"/>
<text text-anchor="start" x="141" y="-512" font-family="Linux libertine" font-size="10.00">(256, 32, 112, 28) </text>
<polygon fill="none" stroke="black" points="88,-483 88,-504 136,-504 136,-483 88,-483"/>
<text text-anchor="start" x="93" y="-491" font-family="Linux libertine" font-size="10.00">output: </text>
<polygon fill="none" stroke="black" points="136,-483 136,-504 235,-504 235,-483 136,-483"/>
<text text-anchor="start" x="141" y="-491" font-family="Linux libertine" font-size="10.00">(256, 32, 112, 28) </text>
</g>
<!-- 7&#45;&gt;8 -->
<g id="edge8" class="edge">
<title>7&#45;&gt;8</title>
<path fill="none" stroke="black" d="M136,-560.63C136,-552.82 136,-543.73 136,-535.18"/>
<polygon fill="black" stroke="black" points="139.5,-535.16 136,-525.16 132.5,-535.16 139.5,-535.16"/>
</g>
<!-- 9 -->
<g id="node10" class="node">
<title>9</title>
<polygon fill="#c1ffc1" stroke="transparent" points="233,-438 39,-438 39,-396 233,-396 233,-438"/>
<polygon fill="none" stroke="black" points="39,-396 39,-438 86,-438 86,-396 39,-396"/>
<text text-anchor="start" x="44" y="-420" font-family="Linux libertine" font-size="10.00">Conv2d</text>
<text text-anchor="start" x="44" y="-409" font-family="Linux libertine" font-size="10.00">depth:3</text>
<polygon fill="none" stroke="black" points="86,-417 86,-438 134,-438 134,-417 86,-417"/>
<text text-anchor="start" x="96" y="-425" font-family="Linux libertine" font-size="10.00">input:</text>
<polygon fill="none" stroke="black" points="134,-417 134,-438 233,-438 233,-417 134,-417"/>
<text text-anchor="start" x="139" y="-425" font-family="Linux libertine" font-size="10.00">(256, 32, 112, 28) </text>
<polygon fill="none" stroke="black" points="86,-396 86,-417 134,-417 134,-396 86,-396"/>
<text text-anchor="start" x="91" y="-404" font-family="Linux libertine" font-size="10.00">output: </text>
<polygon fill="none" stroke="black" points="134,-396 134,-417 233,-417 233,-396 134,-396"/>
<text text-anchor="start" x="139" y="-404" font-family="Linux libertine" font-size="10.00">(256, 64, 107, 23) </text>
</g>
<!-- 8&#45;&gt;9 -->
<g id="edge9" class="edge">
<title>8&#45;&gt;9</title>
<path fill="none" stroke="black" d="M136,-482.86C136,-472.56 136,-459.81 136,-448.35"/>
<polygon fill="black" stroke="black" points="139.5,-448.29 136,-438.29 132.5,-448.29 139.5,-448.29"/>
</g>
<!-- 10 -->
<g id="node11" class="node">
<title>10</title>
<polygon fill="#c1ffc1" stroke="transparent" points="248,-360 24,-360 24,-318 248,-318 248,-360"/>
<polygon fill="none" stroke="black" points="24,-318 24,-360 101,-360 101,-318 24,-318"/>
<text text-anchor="start" x="29" y="-342" font-family="Linux libertine" font-size="10.00">BatchNorm2d</text>
<text text-anchor="start" x="44" y="-331" font-family="Linux libertine" font-size="10.00">depth:3</text>
<polygon fill="none" stroke="black" points="101,-339 101,-360 149,-360 149,-339 101,-339"/>
<text text-anchor="start" x="111" y="-347" font-family="Linux libertine" font-size="10.00">input:</text>
<polygon fill="none" stroke="black" points="149,-339 149,-360 248,-360 248,-339 149,-339"/>
<text text-anchor="start" x="154" y="-347" font-family="Linux libertine" font-size="10.00">(256, 64, 107, 23) </text>
<polygon fill="none" stroke="black" points="101,-318 101,-339 149,-339 149,-318 101,-318"/>
<text text-anchor="start" x="106" y="-326" font-family="Linux libertine" font-size="10.00">output: </text>
<polygon fill="none" stroke="black" points="149,-318 149,-339 248,-339 248,-318 149,-318"/>
<text text-anchor="start" x="154" y="-326" font-family="Linux libertine" font-size="10.00">(256, 64, 107, 23) </text>
</g>
<!-- 9&#45;&gt;10 -->
<g id="edge10" class="edge">
<title>9&#45;&gt;10</title>
<path fill="none" stroke="black" d="M136,-395.63C136,-387.82 136,-378.73 136,-370.18"/>
<polygon fill="black" stroke="black" points="139.5,-370.16 136,-360.16 132.5,-370.16 139.5,-370.16"/>
</g>
<!-- 11 -->
<g id="node12" class="node">
<title>11</title>
<polygon fill="#c1ffc1" stroke="transparent" points="233,-282 39,-282 39,-240 233,-240 233,-282"/>
<polygon fill="none" stroke="black" points="39,-240 39,-282 86,-282 86,-240 39,-240"/>
<text text-anchor="start" x="46.5" y="-264" font-family="Linux libertine" font-size="10.00">PReLU</text>
<text text-anchor="start" x="44" y="-253" font-family="Linux libertine" font-size="10.00">depth:3</text>
<polygon fill="none" stroke="black" points="86,-261 86,-282 134,-282 134,-261 86,-261"/>
<text text-anchor="start" x="96" y="-269" font-family="Linux libertine" font-size="10.00">input:</text>
<polygon fill="none" stroke="black" points="134,-261 134,-282 233,-282 233,-261 134,-261"/>
<text text-anchor="start" x="139" y="-269" font-family="Linux libertine" font-size="10.00">(256, 64, 107, 23) </text>
<polygon fill="none" stroke="black" points="86,-240 86,-261 134,-261 134,-240 86,-240"/>
<text text-anchor="start" x="91" y="-248" font-family="Linux libertine" font-size="10.00">output: </text>
<polygon fill="none" stroke="black" points="134,-240 134,-261 233,-261 233,-240 134,-240"/>
<text text-anchor="start" x="139" y="-248" font-family="Linux libertine" font-size="10.00">(256, 64, 107, 23) </text>
</g>
<!-- 10&#45;&gt;11 -->
<g id="edge11" class="edge">
<title>10&#45;&gt;11</title>
<path fill="none" stroke="black" d="M136,-317.63C136,-309.82 136,-300.73 136,-292.18"/>
<polygon fill="black" stroke="black" points="139.5,-292.16 136,-282.16 132.5,-292.16 139.5,-292.16"/>
</g>
<!-- 12 -->
<g id="node13" class="node">
<title>12</title>
<polygon fill="#c1ffc1" stroke="transparent" points="234.5,-204 37.5,-204 37.5,-162 234.5,-162 234.5,-204"/>
<polygon fill="none" stroke="black" points="38,-162 38,-204 88,-204 88,-162 38,-162"/>
<text text-anchor="start" x="43" y="-186" font-family="Linux libertine" font-size="10.00">Dropout</text>
<text text-anchor="start" x="44.5" y="-175" font-family="Linux libertine" font-size="10.00">depth:3</text>
<polygon fill="none" stroke="black" points="88,-183 88,-204 136,-204 136,-183 88,-183"/>
<text text-anchor="start" x="98" y="-191" font-family="Linux libertine" font-size="10.00">input:</text>
<polygon fill="none" stroke="black" points="136,-183 136,-204 235,-204 235,-183 136,-183"/>
<text text-anchor="start" x="141" y="-191" font-family="Linux libertine" font-size="10.00">(256, 64, 107, 23) </text>
<polygon fill="none" stroke="black" points="88,-162 88,-183 136,-183 136,-162 88,-162"/>
<text text-anchor="start" x="93" y="-170" font-family="Linux libertine" font-size="10.00">output: </text>
<polygon fill="none" stroke="black" points="136,-162 136,-183 235,-183 235,-162 136,-162"/>
<text text-anchor="start" x="141" y="-170" font-family="Linux libertine" font-size="10.00">(256, 64, 107, 23) </text>
</g>
<!-- 11&#45;&gt;12 -->
<g id="edge12" class="edge">
<title>11&#45;&gt;12</title>
<path fill="none" stroke="black" d="M136,-239.63C136,-231.82 136,-222.73 136,-214.18"/>
<polygon fill="black" stroke="black" points="139.5,-214.16 136,-204.16 132.5,-214.16 139.5,-214.16"/>
</g>
<!-- 13 -->
<g id="node14" class="node">
<title>13</title>
<polygon fill="#c1ffc1" stroke="transparent" points="233,-126 39,-126 39,-84 233,-84 233,-126"/>
<polygon fill="none" stroke="black" points="39,-84 39,-126 86,-126 86,-84 39,-84"/>
<text text-anchor="start" x="45" y="-108" font-family="Linux libertine" font-size="10.00">Flatten</text>
<text text-anchor="start" x="44" y="-97" font-family="Linux libertine" font-size="10.00">depth:2</text>
<polygon fill="none" stroke="black" points="86,-105 86,-126 134,-126 134,-105 86,-105"/>
<text text-anchor="start" x="96" y="-113" font-family="Linux libertine" font-size="10.00">input:</text>
<polygon fill="none" stroke="black" points="134,-105 134,-126 233,-126 233,-105 134,-105"/>
<text text-anchor="start" x="139" y="-113" font-family="Linux libertine" font-size="10.00">(256, 64, 107, 23) </text>
<polygon fill="none" stroke="black" points="86,-84 86,-105 134,-105 134,-84 86,-84"/>
<text text-anchor="start" x="91" y="-92" font-family="Linux libertine" font-size="10.00">output: </text>
<polygon fill="none" stroke="black" points="134,-84 134,-105 233,-105 233,-84 134,-84"/>
<text text-anchor="start" x="148" y="-92" font-family="Linux libertine" font-size="10.00">(256, 157504) </text>
</g>
<!-- 12&#45;&gt;13 -->
<g id="edge13" class="edge">
<title>12&#45;&gt;13</title>
<path fill="none" stroke="black" d="M136,-161.63C136,-153.82 136,-144.73 136,-136.18"/>
<polygon fill="black" stroke="black" points="139.5,-136.16 136,-126.16 132.5,-136.16 139.5,-136.16"/>
</g>
<!-- 14 -->
<g id="node15" class="node">
<title>14</title>
<polygon fill="lightyellow" stroke="transparent" points="213.5,-48 58.5,-48 58.5,-16 213.5,-16 213.5,-48"/>
<polygon fill="none" stroke="black" points="59,-16 59,-48 136,-48 136,-16 59,-16"/>
<text text-anchor="start" x="64" y="-35" font-family="Linux libertine" font-size="10.00">output&#45;tensor</text>
<text text-anchor="start" x="79" y="-24" font-family="Linux libertine" font-size="10.00">depth:0</text>
<polygon fill="none" stroke="black" points="136,-16 136,-48 214,-48 214,-16 136,-16"/>
<text text-anchor="start" x="141" y="-29.5" font-family="Linux libertine" font-size="10.00">(256, 157504)</text>
</g>
<!-- 13&#45;&gt;14 -->
<g id="edge14" class="edge">
<title>13&#45;&gt;14</title>
<path fill="none" stroke="black" d="M136,-83.84C136,-75.89 136,-66.66 136,-58.26"/>
<polygon fill="black" stroke="black" points="139.5,-58.24 136,-48.24 132.5,-58.24 139.5,-58.24"/>
</g>
</g>
</svg>
